HIERARCHY
ROOT Hips
{
	OFFSET -0.001795 -0.223333 0.028219
	CHANNELS 6 Xposition Yposition Zposition Zrotation Yrotation Xrotation 
	JOINT LeftUpLeg
	{
		OFFSET 0.069520 -0.091406 -0.006815
		CHANNELS 3 Zrotation Yrotation Xrotation
		JOINT LeftLeg
		{
			OFFSET 0.034277 -0.375199 -0.004496
			CHANNELS 3 Zrotation Yrotation Xrotation
			JOINT LeftFoot
			{
				OFFSET -0.013596 -0.397961 -0.043693
				CHANNELS 3 Zrotation Yrotation Xrotation
				JOINT LeftToe
				{
					OFFSET 0.026358 -0.055791 0.119288
					CHANNELS 3 Zrotation Yrotation Xrotation
					End Site
					{
						OFFSET 0.000000 0.000000 0.000000
					}
				}
			}
		}
	}
	JOINT RightUpLeg
	{
		OFFSET -0.067670 -0.090522 -0.004320
		CHANNELS 3 Zrotation Yrotation Xrotation
		JOINT RightLeg
		{
			OFFSET -0.038290 -0.382569 -0.008850
			CHANNELS 3 Zrotation Yrotation Xrotation
			JOINT RightFoot
			{
				OFFSET 0.015774 -0.398415 -0.042312
				CHANNELS 3 Zrotation Yrotation Xrotation
				JOINT RightToe
				{
					OFFSET -0.025372 -0.048144 0.123348
					CHANNELS 3 Zrotation Yrotation Xrotation
					End Site
					{
						OFFSET 0.000000 0.000000 0.000000
					}
				}
			}
		}
	}
	JOINT Spine
	{
		OFFSET -0.002533 0.108963 -0.026696
		CHANNELS 3 Zrotation Yrotation Xrotation
		JOINT Spine1
		{
			OFFSET 0.005487 0.135180 0.001092
			CHANNELS 3 Zrotation Yrotation Xrotation
			JOINT Spine2
			{
				OFFSET 0.001457 0.052922 0.025425
				CHANNELS 3 Zrotation Yrotation Xrotation
				JOINT Neck
				{
					OFFSET -0.002778 0.213870 -0.042857
					CHANNELS 3 Zrotation Yrotation Xrotation
					JOINT Head
					{
						OFFSET 0.005152 0.064970 0.051349
						CHANNELS 3 Zrotation Yrotation Xrotation
						End Site
						{
							OFFSET 0.000000 0.000000 0.000000
						}
					}
				}
				JOINT LeftShoulder
				{
					OFFSET 0.078845 0.121749 -0.034090
					CHANNELS 3 Zrotation Yrotation Xrotation
					JOINT LeftArm
					{
						OFFSET 0.090977 0.030469 -0.008868
						CHANNELS 3 Zrotation Yrotation Xrotation
						JOINT LeftForeArm
						{
							OFFSET 0.259612 -0.012772 -0.027456
							CHANNELS 3 Zrotation Yrotation Xrotation
							JOINT LeftHand
							{
								OFFSET 0.249234 0.008986 -0.001171
								CHANNELS 3 Zrotation Yrotation Xrotation
								End Site
								{
									OFFSET 0.000000 0.000000 0.000000
								}
							}
						}
					}
				}
				JOINT RightShoulder
				{
					OFFSET -0.081759 0.118833 -0.038615
					CHANNELS 3 Zrotation Yrotation Xrotation
					JOINT RightArm
					{
						OFFSET -0.096012 0.032551 -0.009143
						CHANNELS 3 Zrotation Yrotation Xrotation
						JOINT RightForeArm
						{
							OFFSET -0.253742 -0.013329 -0.021401
							CHANNELS 3 Zrotation Yrotation Xrotation
							JOINT RightHand
							{
								OFFSET -0.255298 0.007772 -0.005559
								CHANNELS 3 Zrotation Yrotation Xrotation
								End Site
								{
									OFFSET 0.000000 0.000000 0.000000
								}
							}
						}
					}
				}
			}
		}
	}
}
MOTION
Frames: 7
Frame Time: 0.050000
0.002842 0.966559 -0.021068 -3.584187 3.644557 -2.455655 10.678744 -0.279263 9.106006 -5.575763 0.382946 -9.977714 -1.458430 5.677602 20.615696 0.000000 0.000000 0.000000 2.782158 -1.161791 8.517733 -1.677017 -0.249313 -7.848087 -2.268024 -10.413484 20.471069 0.000000 0.000000 0.000000 -1.264933 -0.288979 8.643325 3.471727 0.044223 -29.238151 -4.899662 -4.746114 26.465063 5.838171 -3.053913 -19.718127 0.000000 0.000000 0.000000 -12.173302 3.470468 -1.925808 -22.845680 -21.646896 -0.755471 26.394965 -31.392749 -5.791659 0.000000 0.000000 0.000000 -14.478680 -1.552657 0.446349 -1.082445 19.580496 -1.475023 -46.838757 9.269234 -3.707083 0.000000 0.000000 0.000000 
0.002983 0.966370 -0.021051 -3.606551 3.509053 -2.501776 10.693636 -0.272441 9.042656 -5.589690 0.391472 -9.724680 -1.366449 5.748376 20.488779 0.000000 0.000000 0.000000 2.697703 -1.155287 8.537496 -1.742091 -0.244003 -7.808917 -1.880721 -9.814234 20.465350 0.000000 0.000000 0.000000 -1.208674 -0.302520 8.907901 3.630790 0.023682 -29.512205 -5.114706 -4.837444 26.508835 5.662389 -2.957103 -19.797835 0.000000 0.000000 0.000000 -12.914988 3.157917 -1.794127 -23.490182 -22.156380 -0.672706 22.416463 -27.884202 -4.090297 0.000000 0.000000 0.000000 -14.640009 -1.603514 0.469504 -1.494411 19.851892 -1.530236 -46.707636 7.408300 -2.981419 0.000000 0.000000 0.000000 
0.002960 0.966023 -0.021045 -3.710824 3.282288 -2.580767 10.793784 -0.269634 8.980801 -5.587928 0.403100 -9.386533 -1.211451 5.873062 20.286342 0.000000 0.000000 0.000000 2.878413 -1.166652 8.521959 -1.796883 -0.235147 -7.703500 -1.962466 -9.965411 20.373672 0.000000 0.000000 0.000000 -1.145116 -0.314063 9.102756 3.620345 0.020606 -29.433101 -5.267023 -4.920259 26.466712 5.829721 -3.112820 -19.729637 0.000000 0.000000 0.000000 -13.739317 2.664023 -1.561241 -24.146658 -22.215593 -0.660880 19.987942 -25.014346 -3.084929 0.000000 0.000000 0.000000 -14.491195 -1.533644 0.508908 -1.756275 19.978130 -1.564903 -46.960905 5.323507 -2.208576 0.000000 0.000000 0.000000 
0.002799 0.966000 -0.021003 -3.714779 3.108081 -2.746503 10.953282 -0.273598 9.032019 -5.853584 0.418420 -9.086430 -1.142760 5.933575 20.240458 0.000000 0.000000 0.000000 2.848945 -1.180479 8.664995 -1.744424 -0.242677 -7.791197 -1.932132 -9.995667 20.637271 0.000000 0.000000 0.000000 -1.151874 -0.324974 9.421891 3.793854 -0.018667 -29.362746 -5.604102 -4.820710 26.281892 5.939478 -3.156295 -19.883566 0.000000 0.000000 0.000000 -14.645063 2.566055 -1.568226 -25.223289 -22.178404 -0.619372 18.277459 -23.176423 -2.487712 0.000000 0.000000 0.000000 -14.083743 -1.284570 0.545669 -2.066946 20.342539 -1.618881 -47.113012 3.428100 -1.450551 0.000000 0.000000 0.000000 
0.002450 0.965569 -0.020950 -3.752785 3.068070 -2.821480 11.207755 -0.293226 8.944723 -6.182565 0.434134 -8.773739 -1.107493 5.932017 20.083789 0.000000 0.000000 0.000000 2.951943 -1.188784 8.665035 -1.905878 -0.235801 -7.796746 -1.863027 -9.928590 20.844060 0.000000 0.000000 0.000000 -1.473165 -0.307092 9.636786 3.889871 -0.044671 -29.241167 -5.679789 -4.974093 26.179214 5.959694 -3.186485 -19.963048 0.000000 0.000000 0.000000 -15.386587 2.565266 -1.577449 -26.291968 -21.554235 -0.702491 17.432186 -23.061856 -2.283177 0.000000 0.000000 0.000000 -13.651584 -1.055604 0.600052 -1.915944 20.735977 -1.655907 -47.731894 1.500006 -0.720508 0.000000 0.000000 0.000000 
0.001956 0.965335 -0.020967 -3.761195 3.111281 -2.916064 11.442384 -0.313225 8.811338 -6.503837 0.451707 -8.385030 -1.124214 5.883016 19.967913 0.000000 0.000000 0.000000 3.089863 -1.215736 8.772764 -2.001419 -0.249370 -8.088060 -2.099941 -10.396700 21.424100 0.000000 0.000000 0.000000 -1.682206 -0.297328 9.827367 3.809629 -0.045157 -28.896046 -5.849199 -4.979162 25.897398 5.720412 -3.007730 -20.008256 0.000000 0.000000 0.000000 -15.936821 2.709356 -1.704499 -27.065132 -20.847214 -0.784682 16.291024 -23.500821 -2.106436 0.000000 0.000000 0.000000 -12.943486 -0.800204 0.620375 -1.477870 20.944815 -1.642942 -48.804294 0.245556 -0.206485 0.000000 0.000000 0.000000 
0.001433 0.964942 -0.021144 -3.747994 3.100858 -3.030165 11.714617 -0.332419 8.671042 -6.934657 0.477603 -7.939946 -1.116207 5.852486 19.826411 0.000000 0.000000 0.000000 3.000163 -1.219447 8.867391 -1.890450 -0.257520 -8.148598 -2.023923 -10.300385 21.535014 0.000000 0.000000 0.000000 -1.965469 -0.282060 10.067697 3.635037 -0.014171 -28.809756 -5.744893 -4.897187 25.689625 5.481263 -2.825580 -20.056255 0.000000 0.000000 0.000000 -16.482806 2.843217 -1.831808 -27.660120 -20.057360 -0.904318 15.439685 -24.333966 -2.016411 0.000000 0.000000 0.000000 -12.513687 -0.525544 0.653991 -0.998880 21.246996 -1.633456 -49.789068 -0.498670 0.125957 0.000000 0.000000 0.000000 
